<?xml version="1.0" encoding="utf-8"?>
<!-- Generator: Adobe Illustrator 26.4.1, SVG Export Plug-In . SVG Version: 6.00 Build 0)  -->
<svg version="1.1" id="Layer_1" xmlns="http://www.w3.org/2000/svg" xmlns:xlink="http://www.w3.org/1999/xlink" x="0px" y="0px"
	 viewBox="0 0 1079.6 84" style="enable-background:new 0 0 1079.6 84;" xml:space="preserve">
<style type="text/css">
	.st0{fill:#FFFFFF;}
</style>
<g>
	<g>
		<path class="st0" d="M334.3,28.7c-1.9,0.4-6.1,0.4-7.9,0l-0.2-7.4c2-0.4,6.3-0.4,8.2,0L334.3,28.7z M326.4,34
			c1.9-0.4,5.8-0.4,7.6,0v33.6c-1.8,0.4-5.7,0.4-7.6,0V34z"/>
	</g>
	<path class="st0" d="M311.1,62.1h-0.4c-0.7,4.8-3.6,6.3-6.9,6.3c-4.2,0-7.3-3.2-7.3-11.3V38.9c0-8.3,3.1-11.3,7.3-11.3
		c3.4,0,6.2,1.6,6.9,6.4h0.4l-0.4-6.4V13.4c2.1-0.4,6.7-0.4,8.8,0v54.4c-2.1,0.3-5.8,0.3-7.8,0L311.1,62.1z M310.6,42.1
		c-0.5-4.2-1.1-5.4-3-5.4c-1.6,0-2.4,0.7-2.4,5.7v12c0,4.3,0.9,5,2.4,5c1.8,0,2.4-1.2,3-5.4V42.1z"/>
	<g>
		<path class="st0" d="M289.7,67.8h-7.6v-3.4H282c-1.3,3.1-4.1,4.5-6.6,4.5c-6.4,0-11-7.7-11-16.6s4.4-16.6,10.9-16.6
			c2.5,0,5.1,1.3,6.8,4v-3.1h7.7L289.7,67.8L289.7,67.8z M272.4,52.2c0,4,1.8,7,5,7s4.9-3.1,4.9-7s-1.8-7-4.9-7
			S272.4,48.4,272.4,52.2z"/>
	</g>
	<g>
		<path class="st0" d="M491.3,67.8h-7.6v-3.4h-0.1c-1.4,3.1-4.1,4.5-6.6,4.5c-6.4,0-11-7.7-11-16.6s4.4-16.6,10.9-16.6
			c2.5,0,5.1,1.3,6.8,4v-3.1h7.6L491.3,67.8L491.3,67.8z M474,52.2c0,4,1.8,7,4.9,7s5-3.1,5-7s-1.8-7-5-7S474,48.4,474,52.2z"/>
	</g>
	<path class="st0" d="M239.5,4.3v24.8h9.4V4.3h9.5v63.3h-9.5V40.8h-9.4v26.7h-9.4V4.3H239.5z"/>
	<path class="st0" d="M362.8,4.4l13.2,63h-11.6l-2.1-10.6h-11.1l-2,10.6h-10.8l12.8-63C351.3,4.4,362.8,4.4,362.8,4.4z M357.9,30.2
		l-1.3-9.5h-0.2l-1.2,9.5L353,47h7.6L357.9,30.2z"/>
	<g>
		<path class="st0" d="M410.6,45v22c-1.7,0.5-3.3,0.7-4.9,0.7c-1.7,0-3.2-0.3-4.8-0.7V45.8c0-2.2-0.4-3.8-1.4-4.8
			c-0.9-1-2.2-1.4-4.1-1.4c-2.9,0-6.4,1.7-6.4,6.8v20.8c-1.6,0.5-3.2,0.7-4.8,0.7c-1.5,0-3.2-0.3-4.9-0.7V32.9
			c1.5-0.5,3-0.7,4.4-0.7c1.5,0,3,0.3,4.4,0.7v5.2l0.2,0.1c0.9-2,2.3-3.6,4.3-4.9c1.9-1.3,4-1.9,6.2-1.9c3.8,0,6.9,1.4,8.8,3.8
			C409.8,37.9,410.6,40.8,410.6,45z"/>
	</g>
	<path class="st0" d="M420.5,29.8c0-3-0.1-4.9-0.4-5.7c-0.4-0.7-1-1.1-2.6-1.2l-2.3-0.2v-2.6c2.6,0.1,5.1,0.2,7.7,0.2
		c1.8,0,3.6-0.2,5.4-0.2c2.2,3.1,4.3,6.4,6.6,9.3l20,25.5V29.8c0-3-0.1-4.9-0.4-5.7c-0.4-0.7-1-1.1-2.6-1.2l-2.3-0.2v-2.6
		c2.4,0.1,5,0.2,7.4,0.2s4.9-0.2,7.3-0.2v2.6l-2.3,0.2c-1.7,0.2-2.3,0.5-2.6,1.2c-0.4,0.8-0.5,2.7-0.5,5.7v31.8c0,2.4,0.1,5,0.2,7
		l-0.4,0.3l-5.2-0.9c-2.6-3.2-5.3-6.5-7.8-9.7L424.5,31h-0.1v27.4c0,3,0.1,4.9,0.4,5.7c0.4,0.7,1,1.1,2.6,1.2l2.3,0.2V68
		c-2.4-0.1-4.9-0.2-7.3-0.2S417.5,68,415,68v-2.6l2.3-0.2c1.7-0.2,2.3-0.5,2.6-1.2c0.4-0.8,0.4-2.7,0.4-5.7L420.5,29.8L420.5,29.8z"
		/>
</g>
<g>
	<path class="st0" d="M542.7,62.3c0,1.7,0.1,2.9,0.4,3.3c0.3,0.4,0.8,0.6,1.9,0.7l2.1,0.1v1.3c-2.3-0.1-4.4-0.1-6.5-0.1
		c-2.2,0-4.3,0-6,0.1v-1.3l1.5-0.1c1.1-0.1,1.6-0.2,1.9-0.7c0.3-0.5,0.4-1.7,0.4-3.3V42.1h0c-0.7,1.2-1.3,2.5-1.9,3.7l-7.9,16.9
		c-0.8,1.8-1.6,3.8-2.4,5.7h-0.9l-12.4-26.2h-0.1v20.2c0,1.7,0.1,2.9,0.4,3.3s0.8,0.6,1.9,0.7l2,0.1v1.3c-2,0-3.6-0.1-5.4-0.1
		c-1.6,0-3.4,0.1-5.2,0.1v-1.3l2-0.1c1.1-0.1,1.6-0.2,1.9-0.7s0.4-1.7,0.4-3.3v-20c0-1.7-0.1-2.9-0.4-3.3c-0.3-0.4-0.8-0.6-1.9-0.7
		l-2-0.1V37c1.4,0,2.8,0.1,4.2,0.1c1.4,0,2.9-0.1,4.2-0.1l11.8,24.8L538.4,37c1.4,0,2.8,0.1,4.2,0.1s2.9-0.1,4.1-0.1v1.3l-1.9,0.1
		c-1.1,0.1-1.6,0.2-1.9,0.7c-0.3,0.5-0.4,1.6-0.4,3.3v19.9H542.7z"/>
	<path class="st0" d="M577,61.8c0.4,0.9,0.9,2.1,1.4,3c0.5,0.8,1,1.4,1.8,1.5l1.5,0.1v1.3c-2,0-3.9-0.1-5.9-0.1
		c-1.6,0-3.5,0.1-5.9,0.1v-1.3l2.1-0.1c0.9,0,1.8-0.4,1.8-0.9c0-0.6-0.5-1.8-0.9-2.9l-2.1-5.1H558l-1.2,3c-0.4,0.9-1.6,3.9-1.6,4.6
		c0,0.9,0.8,1.1,2.1,1.2l1.6,0.1v1.3c-2.1,0-3.8-0.1-5.1-0.1c-1.7,0-3.4,0.1-5.1,0.1v-1.3l1.7-0.1c1.1-0.1,1.9-1,2.4-2.2l7.9-18.1
		c1.4-3.1,2.9-6.4,4.1-9.6h1.4L577,61.8z M570,55.7l-5.6-13.3l-5.7,13.3H570z"/>
	<path class="st0" d="M587.7,42.3c0-1.7-0.1-2.9-0.4-3.3c-0.3-0.4-0.8-0.6-1.9-0.7l-2-0.1v-1.3c2,0,3.7,0.1,5.4,0.1
		c0.8,0,1.6-0.1,2.4-0.1l21.3,26.3h0.1V42.3c0-1.7-0.1-2.9-0.4-3.3c-0.3-0.4-0.8-0.6-1.9-0.7l-2-0.1v-1.3c1.8,0,3.6,0.1,5.2,0.1
		c1.8,0,3.4-0.1,5.4-0.1v1.3l-2,0.1c-1.1,0.1-1.6,0.2-1.9,0.7c-0.3,0.5-0.4,1.6-0.4,3.3v24.6c0,0.5,0.1,1.1,0.1,1.6l-4-0.7l-21-26.1
		h-0.1v20.6c0,1.7,0.1,2.9,0.4,3.3c0.3,0.4,0.8,0.6,1.9,0.7l2,0.1v1.3c-2,0-3.6-0.1-5.4-0.1c-1.6,0-3.4,0.1-5.2,0.1v-1.3l2-0.1
		c1.1-0.1,1.6-0.2,1.9-0.7c0.3-0.5,0.4-1.7,0.4-3.3v-20H587.7z"/>
	<path class="st0" d="M648.8,61.8c0.4,0.9,0.9,2.1,1.4,3c0.5,0.8,1,1.4,1.8,1.5l1.5,0.1v1.3c-2,0-3.9-0.1-5.9-0.1
		c-1.6,0-3.5,0.1-5.9,0.1v-1.3l2.1-0.1c0.9,0,1.8-0.4,1.8-0.9c0-0.6-0.5-1.8-0.9-2.9l-2.1-5.1h-12.8l-1.2,3
		c-0.4,0.9-1.6,3.9-1.6,4.6c0,0.9,0.8,1.1,2.1,1.2l1.6,0.1v1.3c-2.1,0-3.8-0.1-5.1-0.1c-1.7,0-3.4,0.1-5.1,0.1v-1.3l1.7-0.1
		c1.1-0.1,1.9-1,2.4-2.2l7.9-18.1c1.4-3.1,2.9-6.4,4.1-9.6h1.4L648.8,61.8z M641.8,55.7l-5.6-13.3l-5.7,13.3H641.8z"/>
	<path class="st0" d="M681.1,58.8c0-1-0.4-1.5-1.5-1.6l-3.7-0.3v-1.3c1.8,0,3.7,0.1,5.4,0.1c1.8,0,3.7,0,5.5-0.1l0.2,1.1l-1.3,0.4
		c-0.5,0.2-0.5,0.4-0.5,1.7v7.5c-3.8,1.1-8.7,2.3-11.7,2.3c-9.9,0-18-5.2-18-16.4c0-9.8,8.1-16.1,18.8-16.1c5.5,0,9,1.2,11.1,1.8
		c-0.5,2.1-0.9,4.5-0.9,6.8h-1.4v-2.4c0-2.1-1.6-2.8-3.7-3.6c-1.4-0.5-3.3-0.8-6.2-0.8c-8.5,0-12.9,5.6-12.9,13.5
		c0,8.9,5.2,15.3,14.4,15.3c3.4,0,6-0.8,6.2-1.6c0.2-0.5,0.2-0.7,0.2-1.8L681.1,58.8L681.1,58.8z"/>
	<path class="st0" d="M693.9,42.3c0-1.7-0.1-2.9-0.4-3.3c-0.3-0.4-0.8-0.6-1.9-0.7l-2.1-0.1v-1.3c1.2,0,2.5,0,3.7,0.1
		c1.2,0,2.5,0,3.8,0c3.9,0,8-0.1,10.5-0.1c2,0,4,0,5.8,0.1c-0.5,2-0.7,4.5-0.7,6.8H711v-2.9c0-0.6,0-1.1-0.4-1.2
		c-2.4-0.9-5.9-0.9-8.7-0.9c-1.2,0-2.5,0-3.7,0.4V51c1.4,0.1,3,0.1,5.2,0.1c2.7,0,4.2-0.2,4.7-0.5c0.2-0.2,0.3-0.6,0.4-1.2l0.2-2.3
		h1.3c0,1.8-0.1,3.5-0.1,5.2s0.1,3.3,0.1,5h-1.3l-0.2-2.6c0-0.6-0.1-1-0.4-1.1c-0.5-0.4-2-0.5-4.7-0.5c-2.1,0-3.8,0-5.2,0.1v12.5
		c1.2,0.3,2.5,0.4,3.7,0.4c3.7,0,8.2-0.1,9-0.6c0.7-0.4,1.2-2.3,1.6-5h1.6c-0.4,2.1-0.7,4.9-0.7,7.3c-1.7,0-4.5,0.1-7.4,0.1h-1.4
		c-3.4,0-7-0.1-9.7-0.1c-1.7,0-3.2,0.1-4.8,0.1v-1.3l1.6-0.1c1.1-0.1,1.6-0.2,1.9-0.7c0.3-0.5,0.4-1.7,0.4-3.3L693.9,42.3
		L693.9,42.3z"/>
	<path class="st0" d="M752.7,62.3c0,1.7,0.1,2.9,0.4,3.3c0.3,0.4,0.8,0.6,1.9,0.7l2.1,0.1v1.3c-2.3-0.1-4.4-0.1-6.5-0.1
		c-2.2,0-4.3,0-6,0.1v-1.3l1.5-0.1c1.1-0.1,1.6-0.2,1.9-0.7c0.3-0.5,0.4-1.7,0.4-3.3V42.1h-0.1c-0.7,1.2-1.3,2.5-1.9,3.7l-7.9,16.9
		c-0.8,1.8-1.6,3.8-2.4,5.7h-0.9l-12.4-26.2h-0.1v20.2c0,1.7,0.1,2.9,0.4,3.3c0.3,0.4,0.8,0.6,1.9,0.7l2,0.1v1.3
		c-2,0-3.6-0.1-5.4-0.1c-1.6,0-3.4,0.1-5.2,0.1v-1.3l2-0.1c1.1-0.1,1.6-0.2,1.9-0.7c0.3-0.5,0.4-1.7,0.4-3.3v-20
		c0-1.7-0.1-2.9-0.4-3.3c-0.3-0.4-0.8-0.6-1.9-0.7l-2-0.1V37c1.4,0,2.8,0.1,4.2,0.1s2.9-0.1,4.2-0.1l11.8,24.8l11.8-25
		c1.4,0,2.8,0.1,4.2,0.1s2.9-0.1,4.1-0.1v1.3l-1.9,0.1c-1.1,0.1-1.6,0.2-1.9,0.7c-0.3,0.5-0.4,1.6-0.4,3.3v20.1H752.7z"/>
	<path class="st0" d="M763.4,42.3c0-1.7-0.1-2.9-0.4-3.3c-0.3-0.4-0.8-0.6-1.9-0.7l-2.1-0.1v-1.3c1.2,0,2.5,0,3.7,0.1
		c1.2,0,2.5,0,3.8,0c3.9,0,8-0.1,10.5-0.1c2,0,4,0,5.8,0.1c-0.5,2-0.7,4.5-0.7,6.8h-1.6v-2.9c0-0.6,0-1.1-0.4-1.2
		c-2.4-0.9-5.9-0.9-8.7-0.9c-1.2,0-2.5,0-3.7,0.4V51c1.4,0.1,3,0.1,5.2,0.1c2.7,0,4.2-0.2,4.7-0.5c0.2-0.2,0.3-0.6,0.4-1.2l0.2-2.3
		h1.3c0,1.8-0.1,3.5-0.1,5.2s0.1,3.3,0.1,5h-1.3l-0.2-2.6c0-0.6-0.1-1-0.4-1.1c-0.5-0.4-2-0.5-4.7-0.5c-2.1,0-3.8,0-5.2,0.1v12.5
		c1.2,0.3,2.5,0.4,3.7,0.4c3.7,0,8.2-0.1,9-0.6c0.7-0.4,1.2-2.3,1.6-5h1.6c-0.4,2.1-0.7,4.9-0.7,7.3c-1.7,0-4.5,0.1-7.4,0.1h-1.4
		c-3.4,0-7-0.1-9.7-0.1c-1.7,0-3.2,0.1-4.8,0.1v-1.3l1.6-0.1c1.1-0.1,1.6-0.2,1.9-0.7c0.3-0.5,0.4-1.7,0.4-3.3L763.4,42.3
		L763.4,42.3z"/>
	<path class="st0" d="M790.2,42.3c0-1.7-0.1-2.9-0.4-3.3c-0.3-0.4-0.8-0.6-1.9-0.7l-2-0.1v-1.3c2,0,3.7,0.1,5.4,0.1
		c0.8,0,1.6-0.1,2.4-0.1L815,63.2h0.1V42.3c0-1.7-0.1-2.9-0.4-3.3c-0.3-0.4-0.8-0.6-1.9-0.7l-2-0.1v-1.3c1.8,0,3.6,0.1,5.2,0.1
		c1.8,0,3.4-0.1,5.4-0.1v1.3l-2,0.1c-1.1,0.1-1.6,0.2-1.9,0.7c-0.3,0.5-0.4,1.6-0.4,3.3v24.6c0,0.5,0.1,1.1,0.1,1.6l-4-0.7l-21-26.1
		h-0.1v20.6c0,1.7,0.1,2.9,0.4,3.3c0.3,0.4,0.8,0.6,1.9,0.7l2,0.1v1.3c-2,0-3.6-0.1-5.4-0.1c-1.6,0-3.4,0.1-5.2,0.1v-1.3l2-0.1
		c1.1-0.1,1.6-0.2,1.9-0.7c0.3-0.5,0.4-1.7,0.4-3.3v-20H790.2z"/>
	<path class="st0" d="M833.8,43.5c0-1.7,0-3.1-0.2-4.5h-6.9c-1.3,0-1.7,0.4-1.8,1.5l-0.2,3.5h-1.3c0-2.4-0.1-4.9-0.3-7.2
		c3.2,0,6.4,0.1,9.6,0.1h6.5c1.6,0,3.2,0,4.8-0.1c1.6,0,3.2,0,4.8,0c-0.2,2.3-0.3,4.8-0.3,7.2h-1.4l-0.2-3.5
		c-0.1-1.1-0.4-1.5-1.8-1.5h-6.9c-0.1,1.3-0.2,2.8-0.2,4.5v18.9c0,1.7,0.1,2.9,0.4,3.3c0.3,0.4,0.8,0.6,1.9,0.7l2.1,0.1v1.3
		c-2.3-0.1-4.4-0.1-6.5-0.1c-2.2,0-4.3,0-6.6,0.1v-1.3l2.1-0.1c1.1,0,1.6-0.2,1.9-0.7c0.3-0.5,0.4-1.7,0.4-3.3V43.5H833.8z"/>
</g>
</svg>
