<?xml version="1.0" encoding="utf-8"?>
<!-- Generator: Adobe Illustrator 27.0.0, SVG Export Plug-In . SVG Version: 6.00 Build 0)  -->
<svg version="1.1" id="Layer_1" xmlns="http://www.w3.org/2000/svg" xmlns:xlink="http://www.w3.org/1999/xlink" x="0px" y="0px"
	 viewBox="0 0 812.6 178" style="enable-background:new 0 0 812.6 178;" xml:space="preserve">
<style type="text/css">
	.st0{fill:#FFFFFF;}
</style>
<g>
	<g>
		<path class="st0" d="M367.6,53c-2.9,0.6-9.4,0.6-12.2,0l-0.3-11.4c3.1-0.6,9.7-0.6,12.6,0L367.6,53z M355.4,61.2
			c2.9-0.6,8.9-0.6,11.7,0V113c-2.8,0.6-8.8,0.6-11.7,0V61.2z"/>
	</g>
	<path class="st0" d="M331.8,104.5h-0.6c-1.1,7.4-5.6,9.7-10.6,9.7c-6.5,0-11.3-4.9-11.3-17.4V68.8c0-12.8,4.8-17.4,11.3-17.4
		c5.2,0,9.6,2.5,10.6,9.9h0.6l-0.6-9.9V29.5c3.2-0.6,10.3-0.6,13.6,0v83.9c-3.2,0.5-8.9,0.5-12,0L331.8,104.5z M331.1,73.7
		c-0.8-6.5-1.7-8.3-4.6-8.3c-2.5,0-3.7,1.1-3.7,8.8v18.5c0,6.6,1.4,7.7,3.7,7.7c2.8,0,3.7-1.9,4.6-8.3V73.7z"/>
	<g>
		<path class="st0" d="M298.8,113.3h-11.7v-5.2H287c-2,4.8-6.3,6.9-10.2,6.9c-9.9,0-17-11.9-17-25.6s6.8-25.6,16.8-25.6
			c3.9,0,7.9,2,10.5,6.2v-4.8H299v48.1H298.8z M272.2,89.3c0,6.2,2.8,10.8,7.7,10.8c4.9,0,7.6-4.8,7.6-10.8c0-6-2.8-10.8-7.6-10.8
			C275.1,78.5,272.2,83.4,272.2,89.3z"/>
	</g>
	<g>
		<path class="st0" d="M609.7,113.3h-11.7v-5.2h-0.2c-2.2,4.8-6.3,6.9-10.2,6.9c-9.9,0-17-11.9-17-25.6s6.8-25.6,16.8-25.6
			c3.9,0,7.9,2,10.5,6.2v-4.8h11.7V113.3L609.7,113.3z M583,89.3c0,6.2,2.8,10.8,7.6,10.8c4.8,0,7.7-4.8,7.7-10.8
			c0-6-2.8-10.8-7.7-10.8S583,83.4,583,89.3z"/>
	</g>
	<path class="st0" d="M221.4,15.4v38.2h14.5V15.4h14.6V113h-14.6V71.7h-14.5v41.2h-14.5V15.4H221.4z"/>
	<path class="st0" d="M411.5,15.6l20.4,97.1H414l-3.2-16.3h-17.1l-3.1,16.3h-16.7l19.7-97.1C393.8,15.6,411.5,15.6,411.5,15.6z
		 M404,55.4l-2-14.6h-0.3l-1.9,14.6l-3.4,25.9h11.7L404,55.4z"/>
	<g>
		<path class="st0" d="M485.2,78.2v33.9c-2.6,0.8-5.1,1.1-7.6,1.1c-2.6,0-4.9-0.5-7.4-1.1V79.4c0-3.4-0.6-5.9-2.2-7.4
			c-1.4-1.5-3.4-2.2-6.3-2.2c-4.5,0-9.9,2.6-9.9,10.5v32.1c-2.5,0.8-4.9,1.1-7.4,1.1c-2.3,0-4.9-0.5-7.6-1.1V59.5
			c2.3-0.8,4.6-1.1,6.8-1.1c2.3,0,4.6,0.5,6.8,1.1v8l0.3,0.2c1.4-3.1,3.5-5.6,6.6-7.6c2.9-2,6.2-2.9,9.6-2.9
			c5.9,0,10.6,2.2,13.6,5.9C484,67.2,485.2,71.7,485.2,78.2z"/>
	</g>
	<path class="st0" d="M500.5,54.7c0-4.6-0.2-7.6-0.6-8.8c-0.6-1.1-1.5-1.7-4-1.9l-3.5-0.3v-4c4,0.2,7.9,0.3,11.9,0.3
		c2.8,0,5.6-0.3,8.3-0.3c3.4,4.8,6.6,9.9,10.2,14.3l30.8,39.3V54.7c0-4.6-0.2-7.6-0.6-8.8c-0.6-1.1-1.5-1.7-4-1.9l-3.5-0.3v-4
		c3.7,0.2,7.7,0.3,11.4,0.3c3.7,0,7.6-0.3,11.3-0.3v4l-3.5,0.3c-2.6,0.3-3.5,0.8-4,1.9c-0.6,1.2-0.8,4.2-0.8,8.8v49
		c0,3.7,0.2,7.7,0.3,10.8l-0.6,0.5l-8-1.4c-4-4.9-8.2-10-12-15l-32.7-42.1h-0.2v42.2c0,4.6,0.2,7.6,0.6,8.8c0.6,1.1,1.5,1.7,4,1.9
		l3.5,0.3v3.9c-3.7-0.2-7.6-0.3-11.3-0.3c-3.7,0-7.6,0.3-11.4,0.3v-4l3.5-0.3c2.6-0.3,3.5-0.8,4-1.9c0.6-1.2,0.6-4.2,0.6-8.8
		L500.5,54.7L500.5,54.7z"/>
</g>
<g>
	<g>
		<path class="st0" d="M66.6,134.1c-0.6,0.9-1.9,3.9-1.9,5.1c0,1.1,1.3,1.1,1.8,1.1c1.5,0,3.4-2.6,3.5-4.4c0-1.1-0.7-1.3-1.4-1.6
			c0.5-1.2,1.2-2.2,1.8-3.2C69.7,131,68.9,130.7,66.6,134.1z"/>
		<path class="st0" d="M60.5,134.1c-0.6,0.9-1.9,3.9-1.9,5.1c0,1.1,1.3,1.1,1.8,1.1c1.5,0,3.4-2.6,3.5-4.4c0-1.1-0.7-1.3-1.4-1.6
			c0.5-1.2,1.2-2.2,1.8-3.2C63.5,131,62.7,130.7,60.5,134.1z"/>
		<path class="st0" d="M140.2,154.3c-1.3,1.2-3.7,4.1-5.2,4.1c-0.5,0-1.1-0.5-1.1-1.3c0.1-1.8,2-4,3.1-5.2c0.9-0.9,1.6-1.5,1.6-3
			c0-0.8-0.3-1.5-0.8-2.4c-0.4-0.5-2.3,0-5.9,0.6c0.2-0.5,0.3-0.8,0.3-1.3s-0.3-0.8-0.6-0.8c-0.9,0-4.8,3.3-4.9,6.6
			c0,1,0.2,1.3,0.9,1.4c-0.7,1.3-1.5,2.4-2.5,3.3v0.1c-1.3,1.1-2.7,2.2-3.4,2.2c-0.5,0-0.9-0.3-0.9-1c0.1-2.1,2.8-5.7,4.1-7
			c0.6-0.6,1.6-1.7,1.6-2.8c-0.1-2.4-0.4-2.5-0.7-2.5c-0.9,0-4.7,4.3-5.5,5.2l-3.8,4c-1.8,1.9-3.9,3.2-4.5,3.2
			c-0.3,0-0.3-0.5-0.3-0.7c0.1-1.9,1-3,2.2-4c1.4-1.3,1.7-1.7,2.9-3.3c0.4-0.5,1.4-1.7,1.5-2.4c0.2-1.3-1.7-1-2.2-1
			c-0.6,0-1.1,0.1-1.6,0.5c-1.7,1.3-3.6,4-4.7,6.9v-0.1c-1.2,1.1-2.2,2.8-3.9,2.4c0.8-1.8,1.5-3.4,1.6-5.4c0.1-1.4-0.1-2.3-1.2-2.7
			c0.4-0.3,0.9-0.5,0.9-1.3c0.1-1.3-1.2-1.7-2-1.6c-2.2,0.2-5,1.3-6.9,3.4c-2.2,2-3.6,4.2-3.6,7.7c0,0.5,0,1,0.1,1.4
			c-0.5-0.1-1.5,0.2-3.1,1.2c-4.4,2.8-4.5,3.3-5,3.3c-1-0.1,1.4-4.1,4.7-9.5c5.7-9.5,7.3-11.3,7.4-12.6c0-1-0.7-2.8-1.6-2.8
			c-0.5,0-1.7,1.3-2.2,1.8c-12,13.1-8,8.5-13.4,14c-1.3,1.3-2,0.7-2,0.1c0.1-1.3,1.4-2.8,7.6-12.1c1.2-1.7,4-5.8,4.1-7.9
			c0.1-1.8-1.2-2.5-2.4-2.5c-3.5,0-11.1,4.7-14.2,7c-1.3,1-1.9,1.6-2.4,3.3l-0.6,2.5c-0.3,0.9-0.4,1.5-0.3,1.8
			c0.1,0.4,0.3,0.5,0.6,0.5c0.3,0,0.9-0.4,1.2-0.5c3.4-2.2,6.6-4.5,12.3-8c0.2,0.1,0.5,0.2,0.4,0.5c0,1.1-1.9,3.6-5.1,8.3
			c-7.2,10.2-6.8,11.6-7,12.6c-0.3,1.5,1.2,3.1,2.4,3.1c1.5,0,4-2.7,5.1-3.9l10.1-10.5l0.1,0.1c-2.8,4.1-12.3,19.4-12.5,23.9
			c-0.1,1.3,0.4,2.2,1.5,2.2c1.3,0,2.6-2,3.4-3.1c1.9-2.7,6.6-7.3,9-9.4c0.5-0.3,1.5-1.3,2.1-2.2c0.5,2.5,1.8,4,3.3,4
			c2.3,0,4.1-1.4,5.8-3.4c2.2,0,3.6-0.7,5-2.3c0,0.3-0.1,0.5-0.1,0.8c-0.1,2,0.8,4.6,2.6,4.6c2,0,4.6-4.1,6.1-5.7l0.1,0.1
			c-0.5,1.2-0.9,2.5-0.9,3.9c-0.1,1.6,0.7,3.1,2.1,3.1c2.7,0,6.8-5.3,8.7-7.6v-0.5c0.8-0.9,1.5-1.8,2.2-3.1l3.9-1.1l0.1,0.1
			c-1.5,2.2-3.5,4.7-3.7,7.7c-0.1,1.7,0.8,3.5,2.3,3.5c2.1,0,6.5-5.1,7.9-7.1L140.2,154.3z M101.5,155.7c0,0.8,0.1,1.3,0.4,2.1
			c-0.9,1-1.7,1.8-2.9,1.8c-0.9,0-1.6-0.5-1.5-1.7c0.1-1.4,0.8-3.2,1.7-4.2c1.2-1.4,2.9-2.4,4.2-3.3
			C103.5,150.4,101.6,153.2,101.5,155.7z"/>
	</g>
	<path class="st0" d="M238,154.1c-2,1.9-5.2,5.3-7.8,5.3c-1.2,0-2.3-0.6-2.2-2.3l0.1-1c7.1-2.9,9.1-6.3,9.2-8.5
		c0.1-1.8-1.4-2.2-2.5-2.2c-4,0-8.5,4.2-9.9,9.1v-0.3c-4,4.2-4.9,5-8,4.7c4.2-4.6,6.2-7.7,6.3-10.3c0.1-1.2-0.4-2.2-1.4-2.2
		c-2,0-5.8,3.1-7.4,4.4l-0.1-0.1c0.8-2.1,2-3.8,3.3-5.4c0.6-0.8,2.6-3,2.6-4c0-0.9-1.1-1.1-1.6-1.1c-1.4,0-2.1,1.4-3.1,2.5l-10.2,13
		v0.5c-1.4,1.2-2.7,2.3-3.8,2.3c-0.5,0-1.1-0.4-1.1-1.1c0.1-2.2,3.4-5.4,3.4-6.8c0-1-0.3-1.5-1-1.9c0.4-0.2,1.3-0.6,1.4-1.2
		c0-0.5-0.6-2.2-2.2-2.2c-3.7,0.1-11.5,4.6-13.6,9.4c-2.2,2-4.9,4.3-7.3,4.3c-1.9,0-2.7-1.4-2.7-2.5c0.1-1.3,0.7-2,1.5-2.7l3.1-2.9
		c0,0.9,0.4,2,1.2,2c1,0,4.1-3.5,4.1-6c0.1-1.4-0.5-2.1-1.5-2.1c-2.1,0-5.7,2.5-7.4,4c-2.4,2.2-3.5,3.6-3.8,7.2l-0.3-1.4l-2.2,2.1
		c-1.9,1.7-3.3,3.1-5.7,2.6c2.4-1.8,4.9-4.6,5.1-8.4c0.1-2-0.4-3.6-0.5-5.3c-0.1-1.3-0.3-1.7-1.4-1.7c-1.3,0-2.1,1.4-2.2,3l-8.3,9.2
		c-0.2,0.3-0.5,0.6-0.8,1.1c-1.4,1.2-3,2.1-4.3,2.1c-1.2,0-2.3-0.6-2.2-2.3l0.1-1c7.1-2.9,9.1-6.3,9.2-8.6c0.1-1.8-1.4-2.2-2.5-2.2
		c-4.8-0.1-10.3,6.1-10.4,12.2c-0.1,3.1,1.1,6,3.8,6c2.6,0,5.6-2.2,7.8-4.8c0.7,3,3.1,4.5,5.5,4.7c2.9,0.2,7-3.9,9.4-6.7
		c-0.1,3.4,1.1,6.7,3.9,6.7c2.7,0,5.9-2.7,8.2-5.3c0.3,2.2,2,4.7,3,4.7c0.8,0,3.2-2.4,4-3.1l3.5-3.4l0.1,0.1
		c-0.5,1.3-1.5,3.7-1.5,5.1c-0.1,1.4,0.5,2.4,1.6,2.4c1.8,0,6.8-4.9,8.6-7.2l-0.1-0.5l4.4-5l0.1,0.1c-2.6,5-4.6,8.8-6.4,11.8
		c-1.6,2.7-2.5,5-2.5,7.3c0,0.8,0.2,2.1,1,2.1c0.7,0,1.4-1.3,1.7-1.9l3.8-8.5c0.4,0.2,0.9,0.3,1.4,0.3s1.2-0.2,1.7-0.3
		c0.8,0.5,1.5,0.9,2.5,0.9c3.7,0,6.9-2.9,9.6-5.9c0,0.2,0,0.4,0,0.5c-0.1,3.1,1.1,6,3.8,6c3.6,0,7.8-4.3,10.2-7.6L238,154.1z
		 M233.6,147.9c0.3-0.1,0.5,0.2,0.5,0.5c0,0.8-2.3,4-5.6,5.3C229.6,150.7,231.7,148.6,233.6,147.9z M158.8,147.9
		c0.3-0.1,0.5,0.2,0.5,0.5c0,0.8-2.3,4-5.6,5.3C154.7,150.7,156.9,148.6,158.8,147.9z M166,158.5c-0.6-1.2-1.4-2.4-2.5-2.7v-0.3
		l5.3-6c0.2,1.5,0.3,2.8,0.4,3.8C168.8,156,168.2,156.8,166,158.5z M191.2,159.3c-0.5,0.2-0.6-0.7-0.7-0.9c0.1-2.2,1.3-5,10.1-8.4
		l0.1,0.1C193.1,159.3,192,159.1,191.2,159.3z M211.8,157.5c1.1-1.6,2.2-3.2,3.5-4.4c0.5-0.5,2.3-1.8,2.9-1.8c0.3,0,0.4,0.4,0.4,0.6
		c0,0.8-0.5,1.6-1,2.2l-2.8,3.9C213.8,157.6,212.8,157.4,211.8,157.5z"/>
	<path class="st0" d="M273,153.9c-1.2,1.1-2.2,2.8-3.9,2.4c0.8-1.8,1.5-3.4,1.6-5.4c0.1-1.4-0.1-2.3-1.2-2.7
		c0.5-0.3,0.9-0.5,0.9-1.3c0.1-1.3-1.2-1.7-2-1.6c-2.2,0.2-5,1.3-6.9,3.4c-1.8,1.7-3.2,3.6-3.5,6.4c-3.6,3.2-5,4.4-6,4.4
		c-0.8,0-1.1-0.6-1-1.6c0.1-2.8,2.3-6.5,3.7-8.5c4,0.4,4.4-1.3,6.3-5.8l-2.2-0.3c0.4-0.6,1.5-2.2,1.5-3c0-0.7-0.6-0.9-1.2-0.9
		c-2.2,0-3,2.2-4.1,4c-4,0.2-4.2,0.9-6.4,5l-0.5,0.8c2-0.4,1.3-0.2,3.5-0.2c-1.4,2.9-3.6,5.2-5.8,7.4l0.4,1.7l2-1.9l0.1,0.1
		c-0.5,1.3-1.1,3.1-1.2,4.6c-0.1,1.8,0.7,3.1,2.2,3.1c2.9,0,6.6-4.1,8.9-6.8c0.2,3.6,1.7,5.6,3.5,5.6c2.3,0,4.1-1.4,5.8-3.4
		c2.7,0,4.3-1.1,6-3.7L273,153.9z M264.6,155.7c0,0.8,0.1,1.3,0.4,2.1c-0.9,1-1.7,1.8-2.9,1.8c-0.9,0-1.6-0.5-1.5-1.7
		c0.1-1.4,0.8-3.2,1.7-4.2c1.2-1.4,2.9-2.4,4.2-3.3C266.6,150.4,264.7,153.2,264.6,155.7z"/>
	<path class="st0" d="M322.4,154.1c-2,1.9-5.2,5.3-7.8,5.3c-1.2,0-2.3-0.6-2.2-2.3l0.1-1c7.1-2.9,9.1-6.3,9.2-8.5
		c0.1-1.8-1.4-2.2-2.5-2.2c-4.2,0-9,4.8-10.2,10c-1.2,1-3.8,3.2-4.9,3.2c-0.5,0-0.8-0.4-0.8-1c0-0.5-0.1-0.6,2.3-4.1
		c0.5-0.6,2-2.7,2.1-3.5c0-1.1-0.8-2.2-1.6-2.2c-2,0-8.9,7.4-10.8,9.2l0.1-1.8c2.4-2.9,14.7-18.1,14.9-21.1c0-0.9-0.9-1.3-1.5-1.3
		c-1.3,0-8.8,8-13.5,17c-0.9,1.7-1.7,3.2-2.2,5c-3.9,3.3-5.2,4.7-6.4,4.7c-0.8,0-1.1-0.6-1-1.6c0.1-2.8,2.3-6.5,3.7-8.5
		c4,0.4,4.4-1.3,6.3-5.8l-2.2-0.3c0.4-0.6,1.5-2.2,1.5-3c0-0.7-0.6-0.9-1.2-0.9c-2.2,0-3,2.2-4.1,4.1c-4,0.2-4.2,0.9-6.4,4.9
		l-0.5,0.8c2-0.4,1.3-0.2,3.5-0.2c-1.4,2.9-3.6,5.2-5.8,7.4l0.4,1.7l2-1.9l0.1,0.1c-0.5,1.3-1.1,3.1-1.2,4.6
		c-0.1,1.8,0.7,3.1,2.2,3.1c2.9,0,6.6-4.1,8.9-6.8c0,0.1,0,0.3,0,0.4c0,1.1,0,4.7,1.3,4.7c1.2,0,3.1-4.9,9.6-10.3l0.1,0.1
		c-1.4,2.2-4,5.7-4.1,8.6c-0.1,1.3,0.5,2.4,1.6,2.4c1.8,0,5.9-3.8,7.8-5.6c0,3,1.1,5.8,3.8,5.8c3.6,0,7.8-4.3,10.2-7.6L322.4,154.1z
		 M318,147.9c0.3-0.1,0.5,0.2,0.5,0.5c0,0.8-2.3,4-5.6,5.3C313.9,150.7,316.2,148.6,318,147.9z"/>
	<g>
		<path class="st0" d="M345.6,157L345.6,157l9.2-16.5c0.5-1,1.8-2.7,1.5-3.8c-0.8-3.2-0.5-4.6-2.8-5.2c-1.8-0.5-3.7-0.6-5.5-0.6
			c-4.5,0-9.5,0.6-13.8,3.1c-2.4,1.4-2.4,2.2-3,5.2c-0.2,0.8-0.5,1.9-0.5,2.7c-0.1,1.3,0.7,1.3,1.6,1.3l2.2-0.1
			c1.4-0.1,2.9,0.7,3-0.3c0-0.9-2.3-1.3-2.9-1.3v-0.1c6.1-2.3,12.3-3.4,18.6-3.5l-3.9,5.9c-2.5,3.8-9.7,14.5-9.9,19.1
			c-0.1,1.3,1,1.9,1.9,1.9c1.2,0,2.7-2.7,3.4-3.8c0.5-0.7,1.6-2.3,1.7-3.2C346.4,156.9,346,156.8,345.6,157z"/>
		<path class="st0" d="M363.5,154.1c-2,1.9-5.2,5.3-7.8,5.3c-1.2,0-2.3-0.6-2.2-2.3l0.1-1c7.1-2.9,9.1-6.3,9.2-8.5
			c0.1-1.8-1.3-2.2-2.5-2.2c-4.8-0.1-10.3,6.1-10.3,12.2c-0.1,3.1,1.1,6,3.8,6c3.6,0,7.8-4.3,10.2-7.6L363.5,154.1z M359.1,147.9
			c0.3-0.1,0.5,0.2,0.5,0.5c0,0.8-2.3,4-5.6,5.3C355,150.7,357.3,148.6,359.1,147.9z"/>
		<path class="st0" d="M406.5,154.8l-2.2,2.1c-1.9,1.7-3.3,3.1-5.7,2.6c2.4-1.8,4.9-4.6,5.1-8.4c0.1-2-0.4-3.6-0.5-5.3
			c-0.1-1.3-0.3-1.7-1.4-1.7c-1.3,0-2.1,1.4-2.2,3l-8.3,9.2c-0.3,0.4-0.9,1-0.9,1.6c-0.7,0.5-1.3,0.8-2,0.8c-0.5,0-1.1-0.4-1.1-1.1
			c0.1-2.2,3.4-5.4,3.4-6.8c0-1-0.3-1.5-1-1.9c0.4-0.2,1.3-0.6,1.4-1.2c0-0.5-0.6-2.2-2.2-2.2c-3.9,0.1-12.4,5-13.9,10.3
			c-1.2,1.2-2.5,2.4-3.5,2.4c-1.1,0-1.4-1-1.3-2.2l0.1-1.9l2.6-3.1c1.5,0.4,3.5-3.3,3.4-4.2c0-0.3,0-0.7-0.5-0.7
			c-0.8,0-1.5,0.9-2.2,1.5l-3.4,3.7l0.3-4.1c0.1-0.7,0.3-2.4-0.6-2.4c-1.1,0-6.7,5.9-6.7,6.8c0,0.4,0.1,0.5,0.4,0.6
			c0.3,0.1,0.8-0.4,3.6-2.2l-0.2,5.5l-2,2.2c-0.9,0.4-1.4,0.6-2,1.5c-0.4,0.5-1.3,2.1-1.3,2.7c0,0.4,0.3,0.6,0.5,0.6
			c0.7,0,2-1.3,2.5-2l2.2-2.6c-0.1,1.7-0.6,5.5,1.4,5.5c1.9,0,4.4-3.1,6.4-5.3c0.4,2.2,2,4.5,2.9,4.5c0.8,0,3.2-2.4,4-3.1l3.5-3.4
			l0.1,0.1c-0.5,1.3-1.5,3.7-1.5,5.1c-0.1,1.3,0.5,2.4,1.6,2.4c1.3,0,4.4-2.6,6.6-4.9c0.8,2.8,3.1,4.2,5.4,4.4
			c2.9,0.2,7.1-4,9.5-6.8L406.5,154.8z M378.1,159.3c-0.5,0.2-0.6-0.7-0.7-0.9c0.1-2.2,1.3-5,10.1-8.4l0.1,0.1
			C380,159.3,378.8,159.1,378.1,159.3z M396.8,158.5c-0.6-1.2-1.3-2.6-2.7-2.7l5.5-6.2c0.2,1.5,0.3,2.8,0.4,3.8
			C399.7,156,399.1,156.8,396.8,158.5z"/>
	</g>
	<g>
		<path class="st0" d="M439.4,147.8l4.2-6.1c2.9-4.2,3.2-5.1,3.2-6.6c0-0.5-0.1-1.1-0.5-1.1c-0.8,0-2.4,2.6-2.9,3.3l-7,10.4
			l-5.7,0.8l4.3-5.5c1.5-2,3.9-4.8,4-7.6c0.1-2.2-0.7-4.5-3.8-4.5c-3.2,0-7.8,1.1-10.9,2.3c-2.2,0.8-8.3,3.3-9.7,5.2
			c-0.7,1.1-1.3,3.7-1.4,5c0,0.8,0.2,2.1,1,2.1c0.5,0,1.1-0.4,1.5-0.6c2.6-1.6,2.3-1.6,5.1-2.9c0.5-0.2,0.9-0.4,1-1.1
			c0-0.5-0.3-0.5-0.5-0.7c6.1-3.1,10.8-4.9,12.7-4.9c0.4,0,1.3,0.2,1.3,1c0,0.9-1.2,2.5-1.6,3.2c-3.4,4.6-6.2,8.2-7.7,9.9
			c-5.6,1.4-5.7,1.6-6,1.6s-0.5-0.4-0.8-0.4c-1,0-2.2,2.4-2.2,3.5c-0.1,1.5,1.1,2.2,3.7,1.9c-0.5,1.3-3.2,4.4-3.3,5.7
			c0,1.1,0.9,2,1.7,2c0.9,0,1.7-1.8,2.2-2.6l4-5.6l6.8-1.1c-1.4,3.2-2.2,5.3-2.4,6.7c-0.3,1.3-0.1,2,0.5,2.3c0.9,0.5,2.9-1.8,4-1.5
			c-0.1-0.9-0.4-1.9-0.3-2.8c0.1-1.4,1.5-3.5,2.1-4.8c1.5-0.2,2.6,0,3.7,0.4c1.3-2.4,2.9-4.4,4.6-6.1
			C442.8,147.8,441.1,147.8,439.4,147.8z"/>
		<path class="st0" d="M452,146c1.5,0,3-2.2,3.1-4c0-0.8-0.5-1.4-1.2-1.4c-1.4,0-3.2,1.6-3.3,3.5C450.5,145.1,451.1,146,452,146z"/>
		<path class="st0" d="M477.5,136c0.1-0.6,0-1.7-0.6-1.7c-1.2,0-4.8,4.2-8.2,9.3c-2.1,3.1-3.7,7.2-4.3,11.2
			c-1.6,1.7-4.3,4.3-6.2,4.3c-1,0-1.4-0.9-1.7-2c-0.2-1.1,0-2.4,0.4-3.1c8.3-9.6,9.5-13.7,9.9-18.1c0.1-0.6,0-1.7-0.6-1.7
			c-1.2,0-4.8,4.2-8.2,9.3c-2.2,3.2-3.9,7.5-4.4,11.8V155c-1.5,1.4-3.5,3.8-5.5,3.8c-1.7,0-2.2-1-1.8-2.9c1.6-1.3,5.4-5.4,5.5-7.7
			c0-1-0.9-1.3-1.5-1.3c-2.2,0-7,5.5-7.2,11.1c-0.1,2.3,0.7,5.5,2.9,5.5c2.6,0,5.7-3.6,7.6-6.1c-0.1,2.7,0.4,5.9,3,5.9
			c2.7,0,5.9-3.5,7.9-6.1c0,0.1,0,0.1,0,0.2c-0.1,2.7,0.4,5.9,3,5.9c3.1,0,6.8-4.7,8.9-7.3l-0.4-1.4c-1.5,1.6-4.5,4.6-6.5,4.6
			c-1,0-1.4-0.9-1.7-2c-0.2-1.1,0-2.4,0.4-3.1C476,144.3,477.2,140.3,477.5,136z M474.7,139.7c-0.7,2.6-3.2,7-5.9,10.1l-0.1-0.1
			C470.5,145,472.8,140.8,474.7,139.7z M463.7,139.7c-0.7,2.6-3.2,7-5.9,10.1l-0.1-0.1C459.5,145,461.8,140.8,463.7,139.7z"/>
	</g>
	<g>
		<path class="st0" d="M492.5,164c-2.6,0-3.8-1.9-3.7-5.2c0.2-3.5,2.2-8.6,5-12.3c8.6-12.1,12.9-12.2,13.5-12.4s1,0.2,1,0.9
			c-0.1,1.5-2.5,5.7-6.2,9.5l-0.1-0.1c0.2-0.7,0-1.1-0.4-1.1s-1.7,1.4-2,1.8l-2.8,3c-0.8,0.8-1.8,2.2-1.9,3.6s0.9,2.4,2,2.2
			c4.7-0.9,14.6-12.6,14.5-18.8c0-2.9-1.3-4.3-3.5-4.3c-4.3,0-12.3,7.4-15.6,11.1c-4,4.4-8.7,11.7-9,18.5c-0.2,5.3,2.6,8.5,6.7,8.5
			c3.4,0,9.6-2.8,17.1-11.4c1.4-1.6,2.1-2.3,2.1-4.7C505.4,156.6,497.1,164,492.5,164z"/>
		<path class="st0" d="M598.8,153.4l-8.5,9.1l-0.1-0.1l5.9-10.1c0.5-1,1.6-2.9,1.6-4.1c0-0.6-0.3-2.4-0.9-2.3
			c-0.7,0.2-3.2,3.3-7.1,7.6c-1.6,1.8-3.4,3.8-5.4,4.1c0.1-1,0.4-1.9,0.8-2.7c1.3-1.2,5.6-5.9,5.7-7.7c0-0.6-0.9-2.1-1.4-2.1
			c-0.9,0-6,4.6-7.3,9.4c-1.4,1.3-3.5,3.8-5,3.8c-0.5,0-1.1-0.5-1.1-1.3c0.1-1.8,2-4,3.1-5.2c0.9-0.9,1.6-1.5,1.6-3
			c0-0.8-0.3-1.5-0.8-2.4c-0.4-0.5-2.3,0-5.9,0.6c0.2-0.5,0.3-0.8,0.3-1.3s-0.3-0.8-0.6-0.8c-0.9,0-4.8,3.3-4.9,6.6
			c0,1,0.2,1.3,0.9,1.4c-0.7,1.3-1.5,2.4-2.5,3.3v0.1c-2.4,2.1-3.4,3-4.4,3c-0.8,0-1.1-0.6-1-1.6c0.1-2.8,2.3-6.5,3.7-8.6
			c4,0.4,4.4-1.3,6.3-5.8l-2.2-0.3c0.4-0.6,1.5-2.2,1.5-3c0-0.7-0.6-0.9-1.2-0.9c-2.2,0-3,2.2-4.1,4c-3.9,0.2-4.2,0.9-6.4,5
			l-0.5,0.8c2-0.4,1.3-0.2,3.5-0.2c-0.9,1.8-2.1,3.4-3.4,4.9v-0.4l-2.2,2.3c-0.7,0.7-2.3,2.3-3.2,2.3c-0.4,0-0.6-0.4-0.6-0.8
			c0.1-3.2,4.8-6.7,4.9-8.5c-0.1-1-0.3-1.8-0.5-2.5c-0.2-0.6-0.4-0.9-0.5-0.9c-1.1,0-8,5.7-11.2,10.3c-0.2,0.3-0.5,0.6-0.7,0.6
			s-0.4-0.3-0.4-0.5c0-1.1,4.9-5.8,5-7.6c0-0.3,0.2-0.9-2-1c-0.6,0-1,0.1-1.4,0.5c-1.4,1.4-3,4-4,6.4c-1.3,1.3-4.3,4.1-5.7,4.1
			c-0.5,0-0.9-0.3-0.9-1c0.1-2.1,2.8-5.7,4-7c0.6-0.6,1.6-1.7,1.6-2.8c-0.1-2.4-0.5-2.5-0.7-2.5c-0.9,0-4.7,4.3-5.5,5.2l-3.8,4
			c-1.8,1.9-3.9,3.2-4.5,3.2c-0.3,0-0.3-0.4-0.3-0.7c0.1-1.9,1-3,2.2-4c1.4-1.3,1.7-1.7,2.9-3.3c0.5-0.5,1.4-1.7,1.5-2.4
			c0.2-1.4-1.7-1-2.2-1c-0.6,0-1.1,0.1-1.6,0.5c-1.7,1.3-3.6,4-4.7,6.9v-0.1c-1.2,1.1-2.2,2.8-3.9,2.4c0.8-1.8,1.5-3.4,1.6-5.4
			c0.1-1.4-0.1-2.3-1.2-2.7c0.5-0.3,0.9-0.5,0.9-1.3c0.1-1.3-1.2-1.7-2-1.6c-2.2,0.2-5,1.4-6.9,3.4c-2.2,2-3.6,4.2-3.6,7.7
			c0,4.1,1.6,6.6,3.5,6.6c2.3,0,4.1-1.4,5.8-3.4c2.2,0,3.6-0.7,5-2.3c0,0.3-0.1,0.5-0.1,0.8c-0.1,2,0.8,4.6,2.6,4.6
			c2,0,4.6-4.1,6.1-5.7l0.1,0.1c-0.4,1.2-0.9,2.5-0.9,3.9c-0.1,1.6,0.7,3.1,2.1,3.1c2.2,0,5.6-3.8,7.7-6.3c0,0.2,0,0.4,0,0.5
			c0,1.5,0.3,4.4,1.9,4.4c1,0,2.4-2.2,3-3.2c1.7-2.7,3.7-5,5.9-7l0.1,0.1c-1.3,2.1-3.3,5.1-3.4,7.9c-0.1,1.5,0.5,3.1,1.9,3.1
			c2,0,4.8-3.2,6.8-5.7l1.4-1.4l0.1,0.1c-0.5,1.4-1.1,3.1-1.2,4.6c-0.1,1.8,0.7,3.1,2.2,3.1c3.1,0,7.3-4.9,9.5-7.4v0.1
			c0.9-1,1.7-2,2.5-3.4l3.9-1.1l0.1,0.1c-1.5,2.2-3.5,4.7-3.7,7.7c-0.1,1.7,0.8,3.5,2.3,3.5c1.8,0,5.3-3.8,7.2-6.1
			c0.1,3.2,1.7,4.9,2.6,4.9c0.5,0.1,3.2-2.4,6.3-5.6l0.1,0.1l-5.3,10.4c-0.4,0.6-1.1,2-1.1,2.8s0.2,3.1,1,3.1c0.5,0,1.7-1.8,2.1-2.3
			l11.4-14.9L598.8,153.4z M516.1,155.7c0,0.8,0.1,1.3,0.4,2.1c-0.9,1-1.7,1.8-2.9,1.8c-0.9,0-1.6-0.5-1.5-1.7
			c0.1-1.4,0.8-3.2,1.7-4.2c1.2-1.4,2.9-2.4,4.2-3.3C518.1,150.4,516.2,153.2,516.1,155.7z"/>
	</g>
	<path class="st0" d="M626.6,145.3l-6.1,5.8c-0.8-1.7-1.3-3.6-1.5-5.7l5.6-4c1.8-1.3,3.4-3.2,3.5-6c0.1-2.3-1.6-4.3-3.4-4.2
		c-4.8,0.3-11.2,5.7-10.7,13.1c-4,2.6-7.6,4.7-8.5,12c-0.5,4.1,2.2,7.2,5.4,7.2c2.8,0,5.6-2.3,7.9-4c0.6,0.8,2.2,3.3,3.1,3.3
		c1.3,0,3.6-4.3,3.6-5.6c0-0.4-0.3-0.8-0.5-0.8c-0.3,0-0.6,0.4-1.1,0.4s-0.9-0.5-1.1-1.3c1.5-1.7,4.2-3.8,4.3-6.6
		C627.2,147.7,626.8,146.4,626.6,145.3z M610.8,156.6c-0.5,0-1.8,0.1-1.7-0.8c0.2-2.2,3.7-6.3,5.4-7.2l1.8,5.9
		C614.7,155.5,612.8,156.6,610.8,156.6z M618.7,141.4c0.8-3.2,1.7-6.9,5.7-7.8c0.3-0.1,0.6,0.2,0.6,0.5
		C624.8,136.8,620.4,140,618.7,141.4z"/>
	<g>
		<path class="st0" d="M707.3,159.4c-1.2,0-2.3-0.6-2.2-2.3l0.1-1c7.1-2.9,9.1-6.3,9.2-8.5c0.1-1.8-1.3-2.2-2.5-2.2
			c-4,0-8.5,4.2-9.9,9.2c-1.3,1.3-3.5,4-5,4c-0.5,0-1.1-0.5-1.1-1.3c0.1-1.8,2-4,3.1-5.2c0.9-0.9,1.6-1.5,1.6-3
			c0-0.8-0.3-1.5-0.8-2.4c-0.4-0.5-2.3,0-5.8,0.6c0.2-0.5,0.3-0.8,0.3-1.3s-0.3-0.8-0.6-0.8c-0.9,0-4.8,3.3-4.9,6.6
			c0,1,0.2,1.3,0.9,1.4c-0.3,0.4-0.5,0.8-0.7,1.2c-1.1,1.1-2.1,2.4-3.5,2.1c0.8-1.8,1.5-3.4,1.6-5.4c0.1-1.3-0.1-2.3-1.2-2.7
			c0.5-0.3,0.9-0.5,0.9-1.3c0.1-1.3-1.2-1.7-2-1.6c-2.2,0.2-4.9,1.3-6.9,3.4c-1.3,1.2-2.3,2.5-3,4.1c-4.7,5.3-7.4,7.2-8.4,7.2
			c-0.9,0-1.3-1.3-1.2-2.3c0.2-3.5,2.9-7.8,4.6-10.4l6-8.6c0.5-0.7,1.6-2.3,1.7-3.2c0-1-1.4-4-2.3-4c-0.6,0-1.4,1-1.9,1.4
			c-5,4.8-9.4,9.8-14,14.7l-0.1-0.1c1.6-2.9,5.8-9.7,5.9-13.1c0.1-2.4-1.7-3.2-2.5-3.1c-1.5,0.1-4.8,3.5-6.1,5.1l-6.1,7.1l-0.1-0.1
			c0.5-1.7,2.5-6.5,2.6-8c0-0.7-0.2-1.2-0.4-1.7l-0.8-1.9c-0.4-0.8-0.5-1.4-1.4-1.4c-1.3-0.1-6.6,3-7,3.2l-4.2,2.4l-0.1-0.1
			c1.5-1.5,2.1-2.4,2.1-2.7s-0.3-0.4-0.5-0.4c-0.3,0-0.7,0.5-0.9,0.6c-3.3,2.9-3.1,2.8-3.5,3.3c-0.3,0.5-0.7,3-1.2,5.4
			c-0.3,1.1,0.2,1.7,0.8,1.7c1.9,0,0.1-0.1,11.6-6.7c0.3-0.2,0.9-0.5,1.2-0.5c0.6,0,1.3,0.9-3,9.5l-8.1,12.2c0.4,1.4,0.9,5,2.4,5
			c1.2,0,2.2-1.7,2.8-2.8l5.8-9.3l9.3-12c0.3-0.4,0.7-1,1.2-1c0.4,0,0.5,0.5-0.2,2c-1.3,3.1-2.7,5.6-6.4,11.2l-2.6,4
			c-0.6,1-1.5,2.3-1.6,3.6c-0.1,1.4,0.4,4.7,1.7,4.7c0.9,0,2.8-2.6,3.3-3.5c6.1-9.2,8.2-11.2,14.7-17.8l0.1,0.1
			c-2.7,4.1-7.7,11.1-7.8,16.6c-0.1,2.7,0.5,5.6,3,5.6s8.1-4.9,10.8-8.5c0,0.1,0,0.1,0,0.2c0,4.1,1.6,6.6,3.5,6.6
			c2.3,0,4.1-1.4,5.8-3.4c1.4,0,2.6-0.4,3.7-1.1l0,0l0,0c0.8-0.6,1.5-1.4,2.2-2.5c0.8-0.9,1.6-1.8,2.3-3.1l3.9-1.1l0.1,0.1
			c-1.5,2.2-3.5,4.7-3.7,7.7c-0.1,1.7,0.8,3.5,2.3,3.5c1.8,0,5.2-3.7,7.1-6c0,0.1,0,0.3,0,0.4c-0.1,3.1,1.1,6,3.8,6
			c3.6,0,7.8-4.3,10.2-7.6l-0.3-1.7C713.1,156,709.8,159.4,707.3,159.4z M710.7,147.9c0.3-0.1,0.5,0.2,0.5,0.5c0,0.8-2.3,4-5.6,5.3
			C706.7,150.7,708.8,148.6,710.7,147.9z M680.8,155.7c0,0.8,0.1,1.3,0.4,2.1c-0.9,1-1.7,1.8-2.9,1.8c-0.9,0-1.6-0.5-1.5-1.7
			c0.1-1.4,0.8-3.2,1.7-4.2c1.2-1.4,2.9-2.4,4.2-3.3C682.8,150.4,680.9,153.2,680.8,155.7z"/>
		<path class="st0" d="M720.5,156.1c-2.1-0.5-3.8,3.2-3.9,5c-0.1,1.5,1.3,1.8,2.2,1.9c2.2,0.4,3.4-5.3,3.4-5.4
			C722.3,156.2,721,156.2,720.5,156.1z"/>
		<path class="st0" d="M731.5,156.1c-2.1-0.5-3.8,3.2-3.9,5c-0.1,1.5,1.3,1.8,2.2,1.9c2.2,0.4,3.4-5.3,3.4-5.4
			C733.3,156.2,732.1,156.2,731.5,156.1z"/>
		<path class="st0" d="M742.5,156.1c-2.1-0.5-3.8,3.2-3.9,5c-0.1,1.5,1.3,1.8,2.2,1.9c2.2,0.4,3.4-5.3,3.4-5.4
			C744.3,156.2,743,156.2,742.5,156.1z"/>
	</g>
	<g>
		<path class="st0" d="M750,131.3c0.5,0,1.9,0,1.8,1.1c-0.1,1.3-1.3,4.1-1.9,5.1c-2.3,3.4-3.1,3.1-3.9,3.1c0.6-1,1.3-2,1.8-3.1
			c-0.6-0.3-1.3-0.5-1.3-1.6C746.5,133.8,748.4,131.3,750,131.3z M756.2,131.3c0.5,0,1.9,0,1.8,1.1c-0.1,1.3-1.3,4.1-1.9,5.1
			c-2.3,3.4-3.1,3.1-3.9,3.1c0.6-1,1.3-2,1.8-3.1c-0.6-0.3-1.3-0.5-1.3-1.6C752.7,133.8,754.6,131.3,756.2,131.3z"/>
	</g>
</g>
</svg>
