<?xml version="1.0" encoding="utf-8"?>
<!-- Generator: Adobe Illustrator 27.0.0, SVG Export Plug-In . SVG Version: 6.00 Build 0)  -->
<svg version="1.1" id="Layer_1" xmlns="http://www.w3.org/2000/svg" xmlns:xlink="http://www.w3.org/1999/xlink" x="0px" y="0px"
	 viewBox="0 0 347.2 347.2" style="enable-background:new 0 0 347.2 347.2;" xml:space="preserve">
<style type="text/css">
	.st0{fill:#FF8473;}
	.st1{fill:#57B6D9;}
	.st2{fill:#FFFFFF;}
</style>
<circle class="st0" cx="173.6" cy="173.6" r="173.6"/>
<circle class="st1" cx="173.6" cy="173.6" r="128.9"/>
<g>
	<path class="st2" d="M89.6,178.4c-15.8,0-26.7-11.1-26.7-26.1v-0.1c0-14.4,11.2-26.2,26.6-26.2c9.1,0,14.6,2.5,19.9,7l-7,8.5
		c-3.9-3.3-7.4-5.1-13.3-5.1c-8.1,0-14.6,7.2-14.6,15.8v0.1c0,9.3,6.4,16.1,15.4,16.1c4.1,0,7.7-1,10.5-3v-7.2H89.2v-9.6h22v22
		C106,174.7,98.8,178.4,89.6,178.4z"/>
	<path class="st2" d="M142.2,178.4c-15.6,0-26.9-11.7-26.9-26.1v-0.1c0-14.4,11.4-26.2,27-26.2c15.6,0,26.9,11.7,26.9,26.1v0.1
		C169.3,166.5,157.9,178.4,142.2,178.4z M157.6,152.1c0-8.7-6.4-15.9-15.4-15.9c-9,0-15.2,7.1-15.2,15.8v0.1
		c0,8.7,6.4,15.9,15.4,15.9s15.2-7.1,15.2-15.8V152.1z"/>
	<path class="st2" d="M215.2,137.1v40.4H204v-40.4h-15.4v-10.3h42v10.3H215.2z"/>
	<path class="st2" d="M257.3,178.4c-15.6,0-26.9-11.7-26.9-26.1v-0.1c0-14.4,11.4-26.2,27-26.2c15.6,0,26.9,11.7,26.9,26.1v0.1
		C284.3,166.5,272.9,178.4,257.3,178.4z M272.6,152.1c0-8.7-6.4-15.9-15.4-15.9c-9,0-15.2,7.1-15.2,15.8v0.1
		c0,8.7,6.4,15.9,15.4,15.9s15.2-7.1,15.2-15.8V152.1z"/>
	<path class="st2" d="M129.6,201.9v40.4h-11.2v-40.4H103v-10.3h42v10.3H129.6z"/>
	<path class="st2" d="M171.7,243.2c-15.6,0-26.9-11.7-26.9-26.1V217c0-14.4,11.4-26.2,27-26.2c15.6,0,26.9,11.7,26.9,26.1v0.1
		C198.7,231.4,187.4,243.2,171.7,243.2z M187.1,217c0-8.7-6.4-15.9-15.4-15.9c-9,0-15.2,7.1-15.2,15.8v0.1c0,8.7,6.4,15.9,15.4,15.9
		s15.2-7.1,15.2-15.8V217z"/>
	<path class="st2" d="M224,227.2h-8.5v15.2h-11.2v-50.7H225c12.1,0,19.4,7.2,19.4,17.5v0.1C244.5,221.1,235.3,227.2,224,227.2z
		 M233.2,209.4c0-5-3.5-7.7-9.1-7.7h-8.6v15.5h8.8c5.6,0,8.8-3.3,8.8-7.7V209.4z"/>
</g>
</svg>
