<?xml version="1.0" encoding="utf-8"?>
<!-- Generator: Adobe Illustrator 25.3.1, SVG Export Plug-In . SVG Version: 6.00 Build 0)  -->
<svg version="1.1" xmlns="http://www.w3.org/2000/svg" xmlns:xlink="http://www.w3.org/1999/xlink" x="0px" y="0px"
	 viewBox="0 0 2592 2592" style="enable-background:new 0 0 2592 2592;" xml:space="preserve">
<style type="text/css">
	.st0{fill-rule:evenodd;clip-rule:evenodd;fill:#FFFFFF;}
	.st1{fill:url(#SVGID_1_);}
	.st2{fill:url(#SVGID_2_);}
	.st3{fill:url(#SVGID_3_);}
</style>
<g id="whie_backdrop" xmlns:serif="http://www.serif.com/">
	<path class="st0" d="M1284.1437,2592H316.6796C141.9019,2592,0,2450.0981,0,2275.3203V316.6796C0,141.9019,141.8968,0,316.6796,0
		h1958.6406l0.0002,0.0001C2450.1033,0.0001,2592,141.902,2592,316.6797v1958.6406C2592,2450.0981,2450.0981,2592,2275.3203,2592
		H1736.326H1284.1437z"/>
</g>
<g id="instagram_logo">
	<g>
		
			<linearGradient id="SVGID_1_" gradientUnits="userSpaceOnUse" x1="0.0822" y1="3024.0759" x2="0.9322" y2="3024.0759" gradientTransform="matrix(-757.4411 2502.3938 2502.3938 757.4411 -7565716 -2290639.5)">
			<stop  offset="0" style="stop-color:#515BD4"/>
			<stop  offset="0.26" style="stop-color:#9510B8"/>
			<stop  offset="0.66" style="stop-color:#E51804"/>
			<stop  offset="1" style="stop-color:#FEDA77"/>
		</linearGradient>
		<path class="st1" d="M1296.4854,193.5552c-299.179,0-336.6937,1.2694-454.1906,6.6311
			c-117.2515,5.3488-197.3327,23.9684-267.4048,51.2029c-72.4388,28.151-133.8745,65.8206-195.1123,127.0627
			c-61.2421,61.2378-98.9116,122.6735-127.0627,195.1123c-27.2345,70.0678-45.8541,150.1489-51.2029,267.4005
			c-5.3617,117.4968-6.6268,155.0114-6.6268,454.1906c0,299.1704,1.2651,336.6851,6.6268,454.1819
			c5.3488,117.2515,23.9684,197.3328,51.2029,267.4004c28.151,72.4387,65.8206,133.8745,127.0627,195.1208
			c61.2378,61.2378,122.6735,98.9072,195.1123,127.0586c70.0721,27.23,150.1533,45.854,267.4048,51.2026
			c117.4968,5.3574,155.0115,6.627,454.1906,6.627c299.1704,0,336.6852-1.2695,454.182-6.627
			c117.2515-5.3486,197.3326-23.9727,267.4004-51.2026c72.4388-28.1511,133.8744-65.8206,195.121-127.0586
			c61.2375-61.2463,98.9072-122.6821,127.0583-195.1208c27.2302-70.0676,45.854-150.1489,51.2029-267.4004
			c5.3572-117.4968,6.6267-155.0115,6.6267-454.1819c0-299.1791-1.2695-336.6938-6.6267-454.1906
			c-5.3489-117.2516-23.9729-197.3328-51.2029-267.4005c-28.1511-72.4388-65.8206-133.8745-127.0583-195.1123
			c-61.2466-61.2421-122.6821-98.9117-195.121-127.0627c-70.0677-27.2345-150.1489-45.8541-267.4004-51.2029
			C1633.1705,194.8246,1595.6558,193.5552,1296.4854,193.5552L1296.4854,193.5552z M1296.4854,392.0455
			c294.1359,0,328.9781,1.1188,445.1368,6.4203c107.4016,4.9013,165.7306,22.8453,204.5491,37.9277
			c51.4181,19.9837,88.115,43.8575,126.6625,82.4049c38.5518,38.5474,62.4211,75.2487,82.4048,126.6625
			c15.0869,38.8185,33.0308,97.1473,37.9321,204.549c5.2971,116.1628,6.4202,151.0052,6.4202,445.1454
			c0,294.1357-1.123,328.9781-6.4202,445.1367c-4.9014,107.4016-22.8452,165.7306-37.9321,204.5491
			c-19.9836,51.4181-43.8533,88.1151-82.4048,126.6626c-38.5475,38.5518-75.2444,62.4211-126.6625,82.4048
			c-38.8185,15.0867-97.1473,33.0308-204.5491,37.9277c-116.1414,5.3013-150.9795,6.4246-445.1368,6.4246
			c-294.1658,0-328.9954-1.123-445.1453-6.4246c-107.4017-4.897-165.7305-22.8411-204.549-37.9277
			c-51.418-19.9839-88.1151-43.8533-126.6668-82.4048c-38.5474-38.5475-62.4211-75.2445-82.4006-126.6626
			c-15.0868-38.8185-33.0308-97.1473-37.932-204.5491c-5.3015-116.1584-6.4203-151.001-6.4203-445.1367
			c0-294.1402,1.1188-328.9825,6.4203-445.1454c4.9012-107.4017,22.8453-165.7305,37.932-204.5491
			c19.9794-51.4137,43.8531-88.1151,82.4006-126.6625c38.5517-38.5474,75.2487-62.4211,126.6668-82.4048
			c38.8185-15.0825,97.1473-33.0265,204.549-37.9277C967.5029,393.1643,1002.3453,392.0455,1296.4854,392.0455L1296.4854,392.0455z"
			/>
		
			<linearGradient id="SVGID_2_" gradientUnits="userSpaceOnUse" x1="0.0822" y1="3024.0759" x2="0.9322" y2="3024.0759" gradientTransform="matrix(-757.4411 2502.3938 2502.3938 757.4411 -7565716 -2290639.5)">
			<stop  offset="0" style="stop-color:#515BD4"/>
			<stop  offset="0.26" style="stop-color:#9510B8"/>
			<stop  offset="0.66" style="stop-color:#E51804"/>
			<stop  offset="1" style="stop-color:#FFBF00"/>
		</linearGradient>
		<path class="st2" d="M1296.4854,1662.3495c-202.8019,0-367.2028-164.4009-367.2028-367.1942
			c0-202.802,164.4009-367.2029,367.2028-367.2029c202.7935,0,367.1943,164.4009,367.1943,367.2029
			C1663.6797,1497.9486,1499.2788,1662.3495,1296.4854,1662.3495z M1296.4854,729.4664
			c-312.4241,0-565.6888,253.2648-565.6888,565.6889c0,312.4154,253.2647,565.6802,565.6888,565.6802
			c312.4155,0,565.6803-253.2646,565.6803-565.6802C1862.1656,982.7311,1608.901,729.4664,1296.4854,729.4664z"/>
		
			<linearGradient id="SVGID_3_" gradientUnits="userSpaceOnUse" x1="0.0822" y1="3024.2261" x2="0.9322" y2="3024.2261" gradientTransform="matrix(-757.4411 2502.3938 2502.3938 757.4411 -7565716 -2290639.5)">
			<stop  offset="0" style="stop-color:#515BD4"/>
			<stop  offset="0.26" style="stop-color:#9510B8"/>
			<stop  offset="0.66" style="stop-color:#E51804"/>
			<stop  offset="1" style="stop-color:#FFBF00"/>
		</linearGradient>
		<path class="st3" d="M2016.708,707.116c0,73.0112-59.1851,132.192-132.1919,132.192s-132.192-59.1809-132.192-132.192
			c0-73.0068,59.1852-132.1877,132.192-132.1877S2016.708,634.1091,2016.708,707.116L2016.708,707.116z"/>
	</g>
</g>
</svg>
