<?xml version="1.0" encoding="utf-8"?>
<!-- Generator: Adobe Illustrator 26.4.1, SVG Export Plug-In . SVG Version: 6.00 Build 0)  -->
<svg version="1.1" id="Layer_1" xmlns="http://www.w3.org/2000/svg" xmlns:xlink="http://www.w3.org/1999/xlink" x="0px" y="0px"
	 viewBox="0 0 881.7 80.3" style="enable-background:new 0 0 881.7 80.3;" xml:space="preserve">
<style type="text/css">
	.st0{fill:#FFFFFF;}
</style>
<g>
	<g>
		<path class="st0" d="M409.3,27.1c-2.1,0.4-6.8,0.4-8.8,0l-0.2-8.2c2.2-0.4,7-0.4,9.1,0L409.3,27.1z M400.7,32.9
			c2.1-0.4,6.4-0.4,8.4,0v37.3c-2,0.4-6.3,0.4-8.4,0V32.9z"/>
	</g>
	<path class="st0" d="M383.5,64.2h-0.4c-0.8,5.3-4,7-7.7,7c-4.7,0-8.1-3.5-8.1-12.6V38.4c0-9.2,3.4-12.6,8.1-12.6
		c3.8,0,6.9,1.8,7.7,7.1h0.4l-0.5-7.1V10.1c2.3-0.4,7.4-0.4,9.8,0v60.4c-2.3,0.3-6.4,0.3-8.7,0L383.5,64.2z M383.1,42
		c-0.5-4.7-1.2-6-3.3-6c-1.8,0-2.7,0.8-2.7,6.3v13.3c0,4.8,1,5.5,2.7,5.5c2,0,2.7-1.3,3.3-6V42z"/>
	<g>
		<path class="st0" d="M359.9,70.5h-8.5v-3.8h-0.1c-1.5,3.4-4.5,5-7.3,5c-7.1,0-12.2-8.6-12.2-18.5s4.9-18.4,12.1-18.4
			c2.8,0,5.7,1.5,7.5,4.5v-3.4h8.5V70.5z M340.7,53.2c0,4.4,2,7.8,5.5,7.8s5.5-3.4,5.5-7.8c0-4.3-2-7.8-5.5-7.8S340.7,49,340.7,53.2
			z"/>
	</g>
	<g>
		<path class="st0" d="M583.9,70.5h-8.5v-3.8h-0.1c-1.5,3.4-4.5,5-7.3,5c-7.1,0-12.2-8.6-12.2-18.5s4.9-18.4,12.1-18.4
			c2.8,0,5.7,1.5,7.5,4.5v-3.4h8.5V70.5z M564.6,53.2c0,4.4,2,7.8,5.5,7.8s5.5-3.4,5.5-7.8c0-4.3-2-7.8-5.5-7.8S564.6,49,564.6,53.2
			z"/>
	</g>
	<path class="st0" d="M304,0v27.5h10.6V0h10.5v70.3h-10.5V40.5H304v29.7h-10.5V0H304z"/>
	<path class="st0" d="M441,0.1l14.7,70h-12.9l-2.3-11.8h-12.3l-2.2,11.8h-12l14.2-70H441z M435.7,28.7l-1.4-10.6h-0.2l-1.3,10.6
		l-2.6,18.7h8.5L435.7,28.7z"/>
	<g>
		<path class="st0" d="M494.2,45.2v24.5c-1.9,0.6-3.7,0.8-5.4,0.8c-1.9,0-3.6-0.3-5.3-0.8V46.1c0-2.4-0.5-4.2-1.5-5.3
			c-1-1.1-2.5-1.6-4.6-1.6c-3.2,0-7.1,1.9-7.1,7.5v23.1c-1.8,0.6-3.5,0.8-5.3,0.8c-1.7,0-3.6-0.3-5.5-0.8V31.7
			c1.7-0.5,3.3-0.8,4.9-0.8c1.7,0,3.3,0.3,4.9,0.8v5.8l0.2,0.1c1-2.2,2.6-4,4.8-5.4c2.1-1.4,4.4-2.1,6.9-2.1c4.2,0,7.7,1.6,9.8,4.2
			C493.3,37.3,494.2,40.5,494.2,45.2z"/>
	</g>
	<path class="st0" d="M505.2,28.3c0-3.3-0.1-5.4-0.5-6.3c-0.4-0.8-1.1-1.2-2.9-1.3l-2.6-0.2v-2.9c2.9,0.1,5.7,0.2,8.6,0.2
		c2,0,4-0.2,6-0.2c2.4,3.4,4.8,7.1,7.3,10.3l22.2,28.3V28.3c0-3.3-0.1-5.4-0.5-6.3c-0.4-0.8-1.1-1.2-2.9-1.3l-2.6-0.2v-2.9
		c2.7,0.1,5.5,0.2,8.2,0.2c2.7,0,5.4-0.2,8.1-0.2v2.9l-2.6,0.2c-1.9,0.2-2.6,0.5-2.9,1.3c-0.4,0.9-0.5,3-0.5,6.3v35.3
		c0,2.7,0.1,5.5,0.2,7.8l-0.5,0.3l-5.8-1c-2.9-3.6-5.9-7.2-8.7-10.8l-23.1-30.3h-0.1V60c0,3.3,0.1,5.4,0.5,6.3
		c0.4,0.8,1.1,1.2,2.9,1.3l2.6,0.2v2.9c-2.7-0.1-5.4-0.2-8.1-0.2c-2.7,0-5.5,0.2-8.2,0.2v-2.9l2.6-0.2c1.9-0.2,2.6-0.5,2.9-1.3
		c0.4-0.9,0.5-3,0.5-6.3V28.3z"/>
</g>
</svg>
