<?xml version="1.0" encoding="utf-8"?>
<!-- Generator: Adobe Illustrator 26.4.1, SVG Export Plug-In . SVG Version: 6.00 Build 0)  -->
<svg version="1.1" id="Layer_1" xmlns="http://www.w3.org/2000/svg" xmlns:xlink="http://www.w3.org/1999/xlink" x="0px" y="0px"
	 viewBox="0 0 554.3 164.1" style="enable-background:new 0 0 554.3 164.1;" xml:space="preserve">
<g>
	<path d="M472.3,164.1H82.1c-45.3,0-82.1-36.8-82.1-82C0,36.8,36.8,0,82.1,0h390.2c45.3,0,82.1,36.8,82.1,82.1
		C554.3,127.3,517.5,164.1,472.3,164.1z M82.1,4C39,4,4,39,4,82.1s35,78.1,78.1,78.1h390.2c43,0,78.1-35,78.1-78.1S515.3,4,472.3,4
		H82.1z"/>
</g>
<g>
	<path d="M185.3,115.3l26.9-69.6c0.9-2.2,1.3-4,1.3-5.3c0-3.4-2.4-4.1-5.2-4.3l-7.7-0.4v-4.4c5.3,0.1,10.5,0.4,15.9,0.4
		s10.6-0.3,15.9-0.4v4.4l-4.4,0.4c-3.1,0.3-5,3.5-8,10.6l-25.6,62c-3.5,8.4-6.8,16.8-9.4,25.8h-7.4c-2.4-8.7-5.6-17.1-8.5-24.3
		l-27.7-68c-1.9-4.7-4-5.9-6.5-6l-5.3-0.4v-4.4c6.5,0.1,13,0.4,19.6,0.4s13.1-0.3,19.6-0.4v4.4l-8.2,0.4c-2.4,0.1-4.7,0.7-4.7,2.9
		c0,0.4,0,1,0.3,1.6L185.3,115.3z"/>
	<path d="M254.5,118c0,4,0.1,6.9,0.7,8.5c0.6,1.3,2.2,1.9,4.7,2.1l6.8,0.4v4.4c-5.3-0.1-11.2-0.4-18.4-0.4s-13.1,0.3-18.4,0.4V129
		l6.8-0.4c2.5-0.1,4.1-0.7,4.7-2.1c0.6-1.6,0.7-4.6,0.7-8.5V84.9c0-4.7-0.3-8-1-9.1c-0.9-1.2-2.4-1.6-5.4-1.6h-5.4v-4.1
		c8.7-0.9,17.5-3.7,23-6l1.3,0.6V118H254.5z M255.8,40.2c0,4.3-4,8.1-8.2,8.1s-8.1-3.8-8.1-8.1s3.8-8.2,8.1-8.2
		S255.8,35.9,255.8,40.2z"/>
	<path d="M280.1,112v6c0,9.1,10.5,12.5,19,12.5c9.3,0,17.2-5.4,17.2-13.4c0-4.7-2.5-8.5-7.1-9.7c-6.5-1.6-14.6-3.2-21.6-5.9
		c-7.1-2.7-12.5-7.1-12.5-16c0-15.9,13.8-21.5,27.7-21.5c6.9,0,13.3,1.6,19,3.7c-0.4,5.3-0.6,10.7-0.7,16.6H317v-3.4
		c0-7.7-8.7-12.1-17.1-12.1c-12.5,0-14.4,6.9-14.4,11.9c0,6.3,4.9,9.7,16,11.6c17.5,2.9,25.8,7.4,25.8,18.8
		c0,16.2-16.2,24.7-32.5,24.7c-7.1,0-13.4-1-20.6-3.5c1.5-6.5,1.6-13.5,1.6-20.5h4.3V112z"/>
	<path d="M359.7,118c0,4,0.1,6.9,0.7,8.5c0.6,1.3,2.2,1.9,4.7,2.1l6.8,0.4v4.4c-5.3-0.1-11.2-0.4-18.4-0.4c-7.2,0-13.1,0.3-18.4,0.4
		V129l6.8-0.4c2.5-0.1,4.1-0.7,4.7-2.1c0.6-1.6,0.7-4.6,0.7-8.5V84.9c0-4.7-0.3-8-1-9.1c-0.9-1.2-2.4-1.6-5.4-1.6h-5.4v-4.1
		c8.7-0.9,17.5-3.7,23-6l1.3,0.6V118H359.7z M361.1,40.2c0,4.3-4,8.1-8.2,8.1s-8.1-3.8-8.1-8.1s3.8-8.2,8.1-8.2
		S361.1,35.9,361.1,40.2z"/>
	<path d="M378.2,77.4v-3.1l11.5-5.2V58.9c0-3.8-0.1-7.7-0.6-11.6c5.3-1.6,10-4,12.5-5.6l1.8,1.6c-0.9,6.5-1.6,14.7-1.6,20.9v5.6
		l20.2-0.9l-1.3,8h-18.8v38.6c0,6.8,1.9,10.2,8.1,10.2c3.8,0,6.6-1.6,8.7-2.8l1.9,2.5l-7.1,7.8c-1.3,1.5-6.5,1.8-9.6,1.8
		c-7.8,0-14.4-3.7-14.4-15.6V76.8L378.2,77.4z"/>
</g>
</svg>
